<svg width="50" height="50" viewBox="0 0 50 50" fill="none" xmlns="http://www.w3.org/2000/svg">
<rect x="0.5" y="0.5" width="49" height="49" rx="24.5" fill="white"/>
<rect x="0.5" y="0.5" width="49" height="49" rx="24.5" stroke="#909090"/>
<g clip-path="url(#clip0_427_400)">
<path d="M25.0003 22.9167C29.6027 22.9167 33.3337 19.1857 33.3337 14.5833C33.3337 9.98096 29.6027 6.25 25.0003 6.25C20.398 6.25 16.667 9.98096 16.667 14.5833C16.667 19.1857 20.398 22.9167 25.0003 22.9167Z" stroke="#909090" stroke-linecap="round" stroke-linejoin="round"/>
<path d="M41.6668 43.4167V39.2501C41.6668 37.0399 40.7889 34.9203 39.226 33.3575C37.6632 31.7947 35.5436 30.9167 33.3335 30.9167H16.6668C14.4567 30.9167 12.3371 31.7947 10.7743 33.3575C9.21147 34.9203 8.3335 37.0399 8.3335 39.2501V43.4167" stroke="#909090" stroke-linecap="square" stroke-linejoin="round"/>
</g>
<defs>
<clipPath id="clip0_427_400">
<rect width="50" height="50" fill="white"/>
</clipPath>
</defs>
</svg>
